<svg width="87" height="67" viewBox="0 0 87 67" fill="none" xmlns="http://www.w3.org/2000/svg">
<path d="M58.6728 13.7203V8.70172C58.6728 3.89578 54.4377 0 49.2095 0H9.46312C4.23513 0 0 3.89578 0 8.70172V35.9491C0 40.755 4.23513 44.6508 9.46312 44.6508H12.9486L10.1153 57.6748L29.4979 44.6508H33.1314V27.3056C33.1314 19.8153 39.7583 13.7203 47.9057 13.7203H58.6728Z" fill="#012682"/>
<path d="M77.5358 18.604H47.9047C42.6767 18.604 38.4414 22.4998 38.4414 27.3057V46.8554C38.4414 51.6614 42.6767 55.5571 47.9047 55.5571H62.587L78.6266 66.3356L76.2822 55.5571H77.5358C82.7623 55.5571 86.999 51.6614 86.999 46.8554V27.3056C86.999 22.4996 82.7623 18.604 77.5358 18.604Z" fill="#012682"/>
</svg>
