<svg width="85" height="76" viewBox="0 0 85 76" fill="none" xmlns="http://www.w3.org/2000/svg">
<path d="M62.1076 69.6734H5.64619V27.3838H27.3838V5.64619H62.1076V11.2132L67.7538 5.79295V0H27.3838L5.64619 21.7376L0 27.3838V75.3196H67.7538V42.0752L62.1076 47.9584V69.6734Z" fill="#012682"/>
<path d="M84.4353 14.8782L75.9145 6.35748C75.164 5.60675 73.9469 5.60675 73.1965 6.35748L37.2216 40.9073C36.9985 41.1304 36.8338 41.405 36.742 41.7067L32.3907 56.0035C31.9429 57.4745 33.318 58.8496 34.7891 58.4019L49.5456 53.9108L84.4353 17.5964C85.1858 16.8458 85.1858 15.6288 84.4353 14.8782ZM40.5037 53.153L37.7019 50.0905L39.6439 43.7077L44.4814 46.3105L47.0849 51.149L40.5037 53.153ZM79.0276 13.5174L48.3775 44.3623L46.4305 42.4152L77.2768 11.7636L79.0278 13.5144C79.0276 13.5157 79.0276 13.5164 79.0276 13.5174Z" fill="#012682"/>
</svg>
