<svg width="77" height="94" viewBox="0 0 77 94" fill="none" xmlns="http://www.w3.org/2000/svg">
<path d="M76.1388 79.4682L75.4428 75.6054C74.8451 72.28 72.4332 69.3893 68.9915 67.8739L54.3401 61.4169C52.5413 60.6258 52.027 58.1241 51.9751 57.9888C51.8164 57.7637 51.5479 57.6283 51.1354 57.6283C51.1231 57.6283 51.1105 57.6283 51.0983 57.6283C50.7472 57.671 50.4597 57.8991 50.3648 58.2112L48.6741 63.9029L38.1104 82.2906L27.5731 63.9641L25.8541 58.2112C25.7626 57.9005 25.4743 57.671 24.9918 57.6196C24.6878 57.6196 24.4086 57.7579 24.1978 58.0986C24.1929 58.1243 23.6841 60.623 21.8803 61.4169L7.2266 67.8739C3.78627 69.3906 1.37512 72.2798 0.776979 75.6054L0.0810263 79.4682C-0.192302 80.9819 0.196636 83.0973 1.6965 84.1664C1.87297 84.2932 2.09443 84.4814 2.37484 84.7208C5.07175 87.0157 13.2787 94.0002 38.1104 94.0002C62.9373 94.0002 71.1463 87.0157 73.844 84.7208C74.1248 84.4829 74.347 84.2932 74.5239 84.1664C76.0243 83.0958 76.4129 80.9805 76.1388 79.4682Z" fill="#012682"/>
<path d="M45.0919 23.0104C48.6425 29.4019 53.505 38.1582 55.6273 39.4296L56.03 39.6704L57.5061 28.615C57.9108 23.7585 56.2831 19.1617 52.9235 15.6709C49.2512 11.8551 43.8518 9.66699 38.11 9.66699C32.3678 9.66699 26.9682 11.8551 23.2959 15.6709C19.936 19.1603 18.3079 23.7585 18.7133 28.6264L20.0562 39.5707L20.5054 39.1004C21.432 38.1325 23.1016 37.122 25.2151 35.842C30.1033 32.8828 37.4502 28.4356 43.2207 19.6622C43.7551 20.6029 44.3916 21.7489 45.0919 23.0104Z" fill="#012682"/>
<path d="M8.65616 44.5555C8.90365 45.5432 9.81532 46.2331 10.873 46.2331C11.0518 46.2331 11.2308 46.2116 11.4061 46.1718L15.2488 45.2865C15.9819 45.1183 16.5752 44.6094 16.8415 43.9323L16.9998 43.9422L16.9278 43.6658C17.0143 43.318 17.0166 42.9773 16.9349 42.6494L14.9316 34.697C14.4512 31.9246 14.2075 29.5542 14.2075 27.6483C14.2075 15.0049 24.9312 4.71928 38.1123 4.71928C51.2929 4.71928 62.0164 15.0049 62.0164 27.6483C62.0164 29.5527 61.7727 31.9246 61.2573 34.7853L59.2891 42.6494C59.2602 42.7663 59.2424 42.8846 59.2355 43.0087L59.157 43.1768C59.131 43.2325 56.4817 48.7274 48.2526 50.2768C47.8254 49.52 47.0014 49.0423 46.0904 49.0423H41.1323C39.776 49.0423 38.6725 50.1014 38.6725 51.4028V53.2629C38.6725 54.5642 39.776 55.6234 41.1323 55.6234H46.0904C47.1217 55.6234 48.0424 54.9933 48.3934 54.0684C53.3187 53.2587 56.6128 51.2704 58.5162 49.7337C60.4882 48.1431 61.6671 46.5137 62.2455 45.5801L64.8182 46.1716C64.9932 46.2115 65.1723 46.2329 65.3511 46.2329C66.4088 46.2329 67.3201 45.543 67.5676 44.5553L69.536 36.6912C69.829 35.518 69.073 34.335 67.8505 34.0528L66.4295 33.7264C66.7667 31.4257 66.9378 29.3818 66.9378 27.6483C66.9375 12.404 54.0064 0 38.1123 0C22.2181 0 9.28704 12.404 9.28704 27.6487C9.28704 29.382 9.45796 31.4259 9.79522 33.7253L8.37307 34.0532C7.15037 34.3353 6.3947 35.5184 6.68832 36.6916L8.65616 44.5555Z" fill="#012682"/>
</svg>
