<svg width="89" height="68" viewBox="0 0 89 68" fill="none" xmlns="http://www.w3.org/2000/svg">
<path d="M42.7062 25.2489C42.7062 20.2311 39.8878 16.0968 34.5029 15.1733C33.7615 15.4311 32.9731 15.5757 32.15 15.5757C31.3271 15.5757 30.5358 15.4311 29.7944 15.1733C24.4108 16.0968 21.5938 20.2311 21.5938 25.2489H32.15H42.7062Z" fill="#012682"/>
<path d="M32.1491 13.7871C35.3396 13.7871 37.9258 11.0846 37.9258 7.75079V6.03774C37.9258 2.70245 35.3396 0 32.1491 0C28.9575 0 26.3711 2.70245 26.3711 6.03774V7.75079C26.3711 11.0846 28.9575 13.7871 32.1491 13.7871Z" fill="#012682"/>
<path d="M67.0724 25.2489C67.0724 20.2311 64.2539 16.0968 58.8701 15.1733C58.1289 15.4311 57.3389 15.5757 56.516 15.5757C55.6931 15.5757 54.9028 15.4311 54.1618 15.1733C48.7782 16.0968 45.9609 20.2311 45.9609 25.2489H56.516H67.0724Z" fill="#012682"/>
<path d="M56.5163 13.7871C59.7068 13.7871 62.2944 11.0846 62.2944 7.75079V6.03774C62.2944 2.70245 59.7068 0 56.5163 0C53.3261 0 50.7383 2.70245 50.7383 6.03774V7.75079C50.7385 11.0846 53.3261 13.7871 56.5163 13.7871Z" fill="#012682"/>
<path d="M88.8438 65.1605L74.6869 30.799C74.3862 30.0644 73.6951 29.5889 72.9302 29.5889H16.0709C15.306 29.5889 14.6149 30.0644 14.313 30.7975L0.156045 65.1605C-0.0984395 65.7779 -0.0391641 66.489 0.315619 67.0513C0.669012 67.6122 1.27046 67.9512 1.91414 67.9512H28.591C30.8689 63.9284 34.7937 61.0094 40.3041 60.0654C41.5727 60.505 42.9259 60.7531 44.3346 60.7531C45.7432 60.7531 47.0964 60.505 48.365 60.0654C53.8754 61.0096 57.8004 63.9284 60.0781 67.9512H87.0847C87.7296 67.9512 88.3297 67.6122 88.6844 67.0513C89.0391 66.489 89.0985 65.778 88.8438 65.1605ZM54.2234 47.3589C54.2234 53.0657 49.7974 57.6925 44.3345 57.6925C38.8716 57.6925 34.4456 53.0659 34.4456 47.3589V44.4262C34.4456 38.7192 38.8716 34.0928 44.3345 34.0928C49.7972 34.0928 54.2234 38.7192 54.2234 44.4262V47.3589Z" fill="#012682"/>
</svg>
