<svg width="69" height="55" viewBox="0 0 69 55" fill="none" xmlns="http://www.w3.org/2000/svg">
<path d="M65.2282 0H3.77344V42.8341H65.2283L65.2282 0ZM60.5141 37.8409C60.5141 37.9194 60.4521 37.9833 60.3758 37.9833H8.62581C8.54953 37.9824 8.4874 37.9194 8.4874 37.8409V4.99316C8.4874 4.91564 8.54953 4.84991 8.62581 4.84991H60.3758C60.4521 4.84991 60.5141 4.91564 60.5141 4.99316V37.8409Z" fill="#012682"/>
<path d="M0 46.5483V49.0992C0 51.8125 2.14385 54.0193 4.78068 54.0193H64.2195C66.8563 54.0193 69.0001 51.8125 69.0001 49.0992V46.5483H0ZM40.0724 50.1046C40.0724 50.5507 39.7195 50.9147 39.2859 50.9147H29.7141C29.2796 50.9147 28.9276 50.5505 28.9276 50.1046V49.3465H40.0724V50.1046Z" fill="#012682"/>
<path d="M44.7157 28.53C43.4532 27.2373 42.9496 26.6141 43.3938 25.5641C45.3434 21.4743 44.6688 16.3972 41.3634 12.996C37.207 8.71813 30.4652 8.71813 26.3087 12.996C22.1523 17.2749 22.1523 24.2085 26.3087 28.4862C29.6132 31.8863 34.5507 32.5806 38.5219 30.5754C39.5433 30.1174 40.1496 30.6365 41.4051 31.9357C42.2642 32.8207 43.7307 34.794 43.7307 34.794C45.3611 36.4718 46.6158 35.4408 47.3702 34.6653C48.1211 33.8907 49.1248 32.5999 47.4943 30.9231C47.4943 30.9231 45.5758 29.4131 44.7157 28.53ZM38.1947 25.2256C35.7875 27.7006 31.8855 27.7006 29.4775 25.2256C27.0722 22.7495 27.0722 18.7327 29.4775 16.2576C31.8856 13.7816 35.7875 13.7816 38.1947 16.2576C40.6009 18.7326 40.6009 22.7495 38.1947 25.2256Z" fill="#012682"/>
</svg>
