<svg width="24" height="18" viewBox="0 0 24 18" fill="none" xmlns="http://www.w3.org/2000/svg">
<path d="M23.0051 2.44007C22.9093 1.95569 22.6932 1.49788 22.3779 1.11299C22.3138 1.03219 22.2469 0.9603 22.1736 0.887377C21.6127 0.323448 20.8323 0 20.0327 0H3.02882C2.22027 0 1.45982 0.315296 0.887557 0.887692C0.815129 0.95994 0.747971 1.03255 0.681489 1.11592C0.367545 1.49919 0.152378 1.95636 0.0588252 2.44142C0.0197285 2.63191 0 2.82928 0 3.02895V14.9713C0 15.3868 0.0844091 15.7914 0.251741 16.176C0.396552 16.5175 0.616268 16.8413 0.887377 17.1123C0.955661 17.1803 1.02349 17.243 1.09592 17.3041C1.63796 17.753 2.32431 18 3.02882 18H20.0327C20.7418 18 21.4274 17.752 21.968 17.2991C22.0403 17.2407 22.1073 17.1793 22.1742 17.1123C22.4363 16.8505 22.6446 16.5497 22.7943 16.218L22.814 16.1707C22.9782 15.7934 23.0616 15.3902 23.0616 14.9714V3.02895C23.0616 2.83189 23.0426 2.63321 23.0051 2.44007ZM1.56851 1.93303C1.61134 1.87033 1.66602 1.80597 1.73579 1.73566C2.08212 1.38951 2.54142 1.19902 3.02877 1.19902H20.0327C20.5243 1.19902 20.9837 1.38982 21.3262 1.73633C21.3854 1.7961 21.4419 1.86245 21.4911 1.92875L21.6212 2.10352L12.5452 10.0137C12.2654 10.259 11.9051 10.3939 11.5307 10.3939C11.1599 10.3939 10.8 10.2593 10.5169 10.014L1.44991 2.10577L1.56851 1.93303ZM1.2051 15.0768C1.2002 15.0442 1.19907 15.0081 1.19907 14.9713V3.27624L8.24232 9.42049L1.27015 15.4994L1.2051 15.0768ZM20.9401 16.5599C20.6675 16.7172 20.3535 16.8006 20.0327 16.8006H3.02882C2.7078 16.8006 2.39399 16.7172 2.12158 16.5599L1.83655 16.3947L9.04043 10.1167L9.82993 10.8034C10.3035 11.2146 10.9074 11.4412 11.5308 11.4412C12.1564 11.4412 12.7613 11.2146 13.2346 10.8034L14.0238 10.1164L21.2252 16.395L20.9401 16.5599ZM21.8622 14.9713C21.8622 15.0075 21.8616 15.0432 21.857 15.0751L21.7946 15.5017L14.8194 9.42378L21.8622 3.27921V14.9713Z" fill="white"/>
</svg>
