<svg width="23" height="23" viewBox="0 0 23 23" fill="none" xmlns="http://www.w3.org/2000/svg">
<path d="M9.98524 22.5607C10.571 23.1464 11.5208 23.1464 12.1066 22.5607L21.6525 13.0147C22.2383 12.4289 22.2383 11.4792 21.6525 10.8934C21.0667 10.3076 20.117 10.3076 19.5312 10.8934L11.0459 19.3787L2.56062 10.8934C1.97483 10.3076 1.02508 10.3076 0.439296 10.8934C-0.146491 11.4792 -0.14649 12.4289 0.439296 13.0147L9.98524 22.5607ZM12.5459 1.5C12.5459 0.671574 11.8743 -3.62116e-08 11.0459 0C10.2175 3.62116e-08 9.5459 0.671574 9.5459 1.5L11.0459 1.5L12.5459 1.5ZM11.0459 21.5L12.5459 21.5L12.5459 1.5L11.0459 1.5L9.5459 1.5L9.5459 21.5L11.0459 21.5Z" fill="white"/>
</svg>
