<svg width="30" height="30" viewBox="0 0 30 30" fill="none" xmlns="http://www.w3.org/2000/svg">
<g clip-path="url(#clip0_100_462)">
<path d="M29.0729 13.0002C27.9283 12.8096 22.0841 12.12 21.0611 12.0465C20.2846 11.9907 18.1998 11.6649 19.5351 9.94808C22.2111 5.63505 21.639 3.40984 20.7489 2.01115C20.0032 0.839505 17.7607 0.485188 17.2461 3.27173C16.7235 6.1021 15.1047 7.29993 14.1367 8.43243C12.172 10.7317 8.08984 15.2895 8.08984 15.2895V26.7346C8.08984 26.7346 16.9897 28.6143 19.1536 28.8329C21.165 29.0362 22.786 28.1781 23.7397 27.0337C24.8598 25.6895 28.0455 19.0315 28.6913 17.5784C30.8579 15.617 30.2175 13.191 29.0729 13.0002Z" fill="#012682"/>
<path d="M5.00684 14.6631H0V28.3961H5.00684V14.6631Z" fill="#012682"/>
</g>
<defs>
<clipPath id="clip0_100_462">
<rect width="30" height="30" fill="white"/>
</clipPath>
</defs>
</svg>
