<svg width="49" height="57" viewBox="0 0 49 57" fill="none" xmlns="http://www.w3.org/2000/svg">
<path d="M31.5805 0L0 7.78974V54.2831L31.5515 57L48.7535 54.0767V6.96558L31.5805 0ZM28.2004 52.5182L17.8932 51.6304V42.7881L11.7606 42.7127V51.1024L4.17814 50.4493V11.0623L28.2004 5.13701V52.5182Z" fill="#012682"/>
<path d="M26.075 8.5647L21.0972 9.60973V15.4696L26.075 14.6113V8.5647Z" fill="#012682"/>
<path d="M9.07649 12.4724L5.60773 13.206V18.3489L9.07649 17.7534V12.4724Z" fill="#012682"/>
<path d="M17.0296 10.6812L12.6226 11.6038V17.0363L17.0296 16.2765V10.6812Z" fill="#012682"/>
<path d="M9.07671 22.6201L5.60773 23.0948V28.2464L9.07671 27.9013V22.6201Z" fill="#012682"/>
<path d="M17.0296 21.4631L12.6226 22.0601V27.4927L17.0296 27.0585V21.4631Z" fill="#012682"/>
<path d="M26.075 20.1548L21.0972 20.8291V26.5975L26.075 26.1071V20.1548Z" fill="#012682"/>
<path d="M26.075 31.855L21.0972 32.1616V37.9298L26.075 37.8071V31.855Z" fill="#012682"/>
<path d="M17.0296 32.4495L12.6226 32.7209V38.1535L17.0296 38.0449V32.4495Z" fill="#012682"/>
<path d="M9.07649 32.9751L5.60773 33.1909V38.3423L9.07649 38.2561V32.9751Z" fill="#012682"/>
</svg>
