<svg width="43" height="53" viewBox="0 0 43 53" fill="none" xmlns="http://www.w3.org/2000/svg">
<path d="M33.8599 0H16.4423H15.0935L14.1394 0.952265L0.952265 14.1393L0 15.0924V16.4413V43.6254C0 48.474 3.94523 52.4201 8.79471 52.4201H33.86C38.7077 52.4201 42.6529 48.4741 42.6529 43.6254V8.79286C42.6528 3.94421 38.7077 0 33.8599 0ZM39.3967 43.6254C39.3967 46.6841 36.9178 49.1639 33.86 49.1639H8.79471C5.73601 49.1639 3.25619 46.6841 3.25619 43.6254V16.4414H11.8276C14.3751 16.4414 16.4423 14.375 16.4423 11.8266V3.25599H33.86C36.9178 3.25599 39.3967 5.73591 39.3967 8.79276V43.6254Z" fill="#012682"/>
<path d="M30.205 16.3223C29.4199 16.8718 28.464 17.1963 27.4353 17.1963C26.4057 17.1963 25.4507 16.8718 24.6647 16.3223C23.2909 16.9135 22.4471 17.9504 21.9323 18.8662C21.2485 20.0809 21.7847 21.8004 22.9656 21.8004C24.1481 21.8004 27.4353 21.8004 27.4353 21.8004C27.4353 21.8004 30.7216 21.8004 31.9042 21.8004C33.0859 21.8004 33.6229 20.0809 32.9383 18.8662C32.4234 17.9503 31.5796 16.9135 30.205 16.3223Z" fill="#012682"/>
<path d="M27.4347 16.0456C29.454 16.0456 31.0892 14.4104 31.0892 12.3921V11.5163C31.0892 9.49974 29.454 7.86182 27.4347 7.86182C25.4163 7.86182 23.7794 9.49974 23.7794 11.5163V12.3921C23.7794 14.4104 25.4165 16.0456 27.4347 16.0456Z" fill="#012682"/>
<path d="M32.9997 26.6577H9.41125V28.9481H32.9997V26.6577Z" fill="#012682"/>
<path d="M32.9997 33.5293H9.41125V35.8206H32.9997V33.5293Z" fill="#012682"/>
<path d="M25.9237 40.4014H9.41125V42.691H25.9237V40.4014Z" fill="#012682"/>
</svg>
