<svg width="45" height="59" viewBox="0 0 45 59" fill="none" xmlns="http://www.w3.org/2000/svg">
<path d="M16.3547 52.8379H7.33392V54.0928H16.3547V52.8379Z" fill="#012682"/>
<path d="M37.1031 52.8379H28.0823V54.0928H37.1031V52.8379Z" fill="#012682"/>
<path d="M43.5701 47.8821C43.0173 46.6828 42.2316 45.7176 41.3374 44.949C39.5443 43.4118 37.3415 42.636 35.4783 42.0968C34.238 41.7407 33.1317 41.4885 32.4441 41.2444C32.129 41.1352 31.8557 41.0969 31.6272 41.0514C31.5716 41.0415 31.5315 41.0296 31.4823 41.0195L31.0252 38.9424C30.8103 37.978 30.0398 37.2577 29.0947 37.0865C29.0947 36.6458 29.0947 36.1586 29.0947 35.6231C30.2202 34.3702 31.8393 32.4286 32.505 29.3498C32.7364 29.2441 32.9657 29.1266 33.188 28.9718C33.5532 28.7196 33.8865 28.388 34.1806 27.9747C34.7706 27.1433 35.2251 26.0095 35.7296 24.2538C35.9191 23.5863 36.0083 23.0053 36.0083 22.489C36.0101 21.8925 35.8863 21.3743 35.6605 20.9554C35.6022 20.8453 35.5239 20.7651 35.4556 20.6713V19.5129H35.5858V18.7462C37.5591 12.9436 37.6839 5.38091 28.8253 3.01043C17.2858 -4.79919 11.0853 4.95373 10.2921 5.80785C7.26146 9.0715 6.21248 12.8015 7.26146 16.9977C7.87796 19.4647 8.3843 20.2888 8.98443 20.6639V20.6712C8.91426 20.765 8.83601 20.8451 8.7777 20.9553C8.55277 21.3742 8.43074 21.8924 8.43074 22.4889C8.43166 23.0052 8.519 23.5862 8.71029 24.2537C9.21294 26.0094 9.66742 27.1432 10.2574 27.9746C10.5524 28.3879 10.8876 28.7194 11.2519 28.9717C11.4722 29.1264 11.7018 29.244 11.9348 29.3497C12.5995 32.4285 14.2178 34.3699 15.3443 35.623C15.3443 36.1585 15.3443 36.6457 15.3443 37.0863C14.4 37.2576 13.6286 37.9779 13.4155 38.9423L12.9557 41.0194C12.9075 41.0295 12.8665 41.0413 12.8126 41.0513C12.5832 41.0968 12.309 41.1351 11.9949 41.2443C11.3084 41.4884 10.201 41.7406 8.96162 42.0967C7.09748 42.6358 4.89386 43.4116 3.10163 44.9489C2.20742 45.7175 1.4206 46.6827 0.869669 47.882C0.315164 49.0803 0 50.5046 0 52.171C0 52.558 0.0163633 52.9588 0.0510487 53.3731C0.0783591 53.6627 0.187601 53.8985 0.316893 54.0924C0.562802 54.4539 0.890642 54.7245 1.30041 55.0004C2.01717 55.4756 3.01152 55.9401 4.28462 56.3955C8.09471 57.7543 14.4026 58.9983 22.2195 59C30.0356 58.9983 36.3435 57.7543 40.1536 56.3957C41.4267 55.9403 42.421 55.4759 43.1386 55.0006C43.5483 54.7247 43.8754 54.4541 44.1239 54.0927C44.2523 53.8987 44.3625 53.6628 44.3871 53.3734C44.4226 52.959 44.4391 52.5583 44.4391 52.1712C44.4407 50.5047 44.1238 49.0804 43.5701 47.8821ZM29.3398 39.3148L29.9955 42.2853L31.5491 49.3109L25.4013 48.4986L23.0729 51.0001L23.0819 49.1543H23.0209L28.6487 42.1434L28.645 41.9158C28.645 41.9139 28.6341 41.4249 28.625 40.8039C28.6159 40.1837 28.6049 39.4325 28.6049 38.9206C28.6049 38.8679 28.6049 38.8205 28.6068 38.7713H28.6633C28.9873 38.7713 29.2696 38.9979 29.3398 39.3148ZM13.5248 28.5739L13.4374 28.0795L12.9656 27.9111C12.666 27.8037 12.4356 27.6944 12.2371 27.5559C11.9412 27.3475 11.6743 27.0633 11.3621 26.4815C11.0543 25.9023 10.7264 25.0363 10.3694 23.7805C10.2119 23.2322 10.1564 22.8061 10.1564 22.4892C10.1564 22.1205 10.2264 21.9046 10.2993 21.7699C10.3849 21.6132 10.4924 21.535 10.6143 21.4731C11.6689 22.3036 12.6232 23.7587 12.6232 23.7587C12.6232 23.7587 12.3901 20.4877 12.3901 18.7466C13.4391 11.1703 21.2487 16.1823 24.1627 10.7039C24.1627 10.7039 25.0988 12.4423 27.4263 13.3848C32.3219 15.3664 31.8557 22.36 31.8557 22.36C31.8557 22.36 31.435 24.8151 33.3246 21.3592L33.3901 21.351C33.4485 21.3538 33.5913 21.3674 33.728 21.4194C33.8974 21.4876 34.0304 21.5715 34.1396 21.77C34.2115 21.9047 34.2817 22.1206 34.2834 22.4893C34.2834 22.8062 34.227 23.2323 34.0704 23.7806C33.7115 25.0364 33.3855 25.9024 33.0779 26.4816C32.7655 27.0635 32.4968 27.3476 32.2037 27.556C32.0024 27.6945 31.7739 27.8038 31.4733 27.9112L31.0016 28.0797L30.9141 28.574C30.3615 31.6647 28.7687 33.405 27.5922 34.7154L27.37 34.9612V35.2927C27.37 36.267 27.37 37.0776 27.37 37.7714V37.7851V37.7987L27.3737 37.9089H27.3545C27.3545 38.3259 27.3499 38.5664 27.3499 38.9205C27.3499 39.7555 27.3737 41.1662 27.3845 41.7116L25.6862 43.8271C24.7309 44.3715 23.5335 44.7076 22.2194 44.7066C20.9063 44.7076 19.708 44.3715 18.7518 43.8271L17.0544 41.7116C17.0644 41.1661 17.0889 39.7555 17.0889 38.9205C17.0889 38.5663 17.0834 38.3259 17.0834 37.9089H17.0652L17.0689 37.7987V37.7851V37.7714C17.0689 37.0775 17.0689 36.267 17.0689 35.2927V34.9612L16.8486 34.7154C15.672 33.4048 14.0766 31.6647 13.5248 28.5739ZM14.4427 42.2853L15.1002 39.3148C15.1694 38.9979 15.4526 38.7712 15.7777 38.7712H15.8342C15.8342 38.8203 15.8342 38.8677 15.8342 38.9205C15.8342 39.4324 15.8249 40.1836 15.8141 40.8038C15.8049 41.4248 15.7959 41.9138 15.7959 41.9157L15.7913 42.1433L21.4182 49.1542H21.358L21.3653 51L19.0395 48.4985L12.8891 49.3108L14.4427 42.2853ZM42.6705 53.1537C42.6486 53.1856 42.6022 53.2393 42.5212 53.3104C42.3299 53.4808 41.9838 53.7102 41.5131 53.9515C40.5705 54.4378 39.1335 54.9805 37.3059 55.475C33.6479 56.4658 28.4191 57.2753 22.2195 57.2753C16.0208 57.2753 10.7929 56.4658 7.13401 55.475C5.3064 54.9805 3.86944 54.4378 2.92509 53.9515C2.45517 53.7102 2.10912 53.4806 1.91979 53.3104C1.83613 53.2393 1.7905 53.1856 1.76769 53.1537C1.7413 52.8141 1.72678 52.4843 1.72678 52.1711C1.72943 50.2351 2.202 48.8208 2.93328 47.7118C4.02869 46.0544 5.78635 45.04 7.62122 44.3488C8.5364 44.0037 9.45966 43.7415 10.3085 43.5148C11.1498 43.288 11.9093 43.1013 12.5449 42.8791L10.6727 51.3434L18.3821 50.3262L22.2195 54.4487L26.0587 50.3262L33.7663 51.3434L31.895 42.8791C32.5315 43.1013 33.291 43.288 34.1306 43.5148C34.9793 43.7415 35.9045 44.0037 36.8188 44.3488C38.6546 45.04 40.4112 46.0544 41.5049 47.7118C42.237 48.8209 42.7105 50.2352 42.7142 52.1711C42.7142 52.4845 42.6986 52.8141 42.6705 53.1537Z" fill="#012682"/>
</svg>
