<svg width="48" height="48" viewBox="0 0 48 48" fill="none" xmlns="http://www.w3.org/2000/svg">
<path d="M40.7962 26.7652C40.8061 27.0091 40.8139 27.2325 40.8139 27.4385C40.8127 32.0901 38.9335 36.2845 35.8858 39.3354C32.8353 42.3827 28.6413 44.2616 23.9892 44.2631C19.3373 44.2616 15.1432 42.3827 12.0926 39.3354C9.04499 36.2845 7.1657 32.0901 7.16467 27.4385C7.16467 27.2325 7.17236 27.0091 7.18221 26.7652L3.44631 26.6162C3.43647 26.8681 3.42587 27.142 3.42587 27.4384C3.427 38.7957 12.6316 48.0003 23.9893 48.0018C35.3469 48.0003 44.5516 38.7957 44.5527 27.4384C44.5527 27.142 44.5421 26.8681 44.5321 26.6162L40.7962 26.7652Z" fill="#012682"/>
<path d="M45.8359 19.9339C44.8219 8.75771 35.4312 0 23.9902 0C12.5493 0 3.15931 8.75771 2.14461 19.9339C0.930973 20.1231 0 21.1629 0 22.4298C0 23.8305 1.13507 24.9653 2.53566 24.9653H45.4448C46.8453 24.9653 47.9805 23.8305 47.9805 22.4298C47.9806 21.1629 47.0495 20.1231 45.8359 19.9339ZM29.2869 14.6828H25.8168V18.1536H22.1635V14.6828H18.6935V11.0302H22.1635V7.55935H25.8168V11.0301H29.2869V14.6828Z" fill="#012682"/>
<path d="M18.5525 31.5503C18.5525 30.3848 17.6072 29.4392 16.4415 29.4392C15.2753 29.4392 14.33 30.3848 14.33 31.5503C14.33 32.7165 15.2753 33.6613 16.4415 33.6613C17.6072 33.6613 18.5525 32.7165 18.5525 31.5503Z" fill="#012682"/>
<path d="M33.6502 31.5503C33.6502 30.3848 32.7049 29.4392 31.539 29.4392C30.3729 29.4392 29.4276 30.3848 29.4276 31.5503C29.4276 32.7165 30.3729 33.6613 31.539 33.6613C32.7049 33.6613 33.6502 32.7165 33.6502 31.5503Z" fill="#012682"/>
</svg>
