<svg width="23" height="32" viewBox="0 0 23 32" fill="none" xmlns="http://www.w3.org/2000/svg">
<path d="M11.5 0C5.1479 0 0 4.74405 0 10.5977C0 16.5719 3.21322 17.8447 6.76471 21.8188C11.0127 26.5724 11.5 31.4815 11.5 31.4815C11.5 31.4815 11.9873 26.5724 16.2353 21.8189C19.7868 17.8447 23 16.5719 23 10.5978C23 4.74405 17.8521 0 11.5 0ZM11.5 14.2602C9.30503 14.2602 7.52575 12.6204 7.52575 10.5978C7.52575 8.57507 9.3051 6.93533 11.5 6.93533C13.6949 6.93533 15.4743 8.57507 15.4743 10.5978C15.4743 12.6204 13.6949 14.2602 11.5 14.2602Z" fill="#012682"/>
</svg>
