<svg width="48" height="48" viewBox="0 0 48 48" fill="none" xmlns="http://www.w3.org/2000/svg">
<g clip-path="url(#clip0_100_66)">
<path d="M24.295 43.128C24.295 44.3848 23.2754 45.4029 22.02 45.4029H17.2359C15.9791 45.4029 14.9609 44.3849 14.9609 43.128V42.0777C14.9609 40.8209 15.979 39.8027 17.2359 39.8027H22.02C23.2754 39.8027 24.295 40.8208 24.295 42.0777V43.128Z" fill="#012682"/>
<path d="M3.46003 34.2833H3.06009C1.80469 34.2833 0.785156 35.3028 0.785156 36.5582V39.7004C0.785156 40.9572 1.37109 41.9767 2.3745 41.9767H2.625C3.71044 41.9767 3.45994 42.9947 3.45994 44.2516V45.7253C3.46003 46.9805 4.47956 48 5.73497 48H9.21253C10.4693 48 11.4875 46.9805 11.4875 45.7251V41.9766V36.5581C11.4875 35.3027 10.4694 34.2832 9.21253 34.2832L3.46003 34.2833Z" fill="#012682"/>
<path d="M31.7183 15.1348C30.6475 15.1348 29.7217 15.8819 29.4962 16.9277L28.2247 22.79C27.9991 23.8359 27.0718 24.583 26.001 24.583H11.7555C10.5001 24.583 9.48056 25.6025 9.48056 26.8579V28.5806C9.48056 29.836 10.5001 30.8555 11.7555 30.8555H12.2227C13.4782 30.8555 14.4977 31.875 14.4977 33.1319V34.2642C14.4977 35.5196 15.5172 36.5391 16.7726 36.5391H34.4093C35.4772 36.5391 36.4015 35.7949 36.6315 34.749L40.3171 17.8946C40.465 17.2237 40.2995 16.5206 39.8674 15.9844C39.4353 15.4454 38.7833 15.1348 38.0934 15.1348H31.7183Z" fill="#012682"/>
<path d="M45.747 10.1953C45.5419 11.2661 44.6059 12.0411 43.5116 12.0411H33.6196C32.9414 12.0411 32.2969 11.7408 31.8676 11.2178C31.434 10.6934 31.2567 10.0049 31.3842 9.33994L32.8139 1.84875C33.019 0.776344 33.9565 0 35.0493 0H44.9428C45.621 0 46.2626 0.301781 46.6948 0.826219C47.1284 1.34916 47.3042 2.03766 47.1768 2.70412L45.747 10.1953Z" fill="#012682"/>
</g>
<defs>
<clipPath id="clip0_100_66">
<rect width="48" height="48" fill="white"/>
</clipPath>
</defs>
</svg>
